<?xml version="1.0" standalone="no"?>
<!DOCTYPE svg PUBLIC "-//W3C//DTD SVG 20010904//EN"
 "http://www.w3.org/TR/2001/REC-SVG-20010904/DTD/svg10.dtd">
<svg version="1.0" xmlns="http://www.w3.org/2000/svg"
 width="1703.000000pt" height="346.000000pt" viewBox="0 0 1703.000000 346.000000"
 preserveAspectRatio="xMidYMid meet">

<g transform="translate(0.000000,346.000000) scale(0.100000,-0.100000)"
fill="#000000" stroke="none">
<path d="M10885 3241 c-111 -50 -153 -178 -96 -289 24 -47 45 -66 101 -91 57
-26 113 -26 170 0 56 25 77 44 101 91 74 146 -23 308 -186 308 -27 0 -68 -9
-90 -19z m188 -54 c48 -37 70 -88 65 -149 -15 -156 -207 -203 -302 -75 -33 44
-30 142 6 189 38 50 82 69 145 65 36 -2 62 -11 86 -30z"/>
<path d="M1481 3240 c-416 -33 -745 -125 -988 -276 -77 -48 -129 -100 -139
-139 -8 -32 23 -86 61 -104 56 -27 119 2 288 134 186 143 464 228 795 242
l142 6 0 -606 0 -607 -257 0 c-258 0 -329 -7 -344 -32 -15 -23 -10 -85 8 -99
12 -11 78 -15 305 -17 l288 -4 0 -719 0 -719 -153 0 c-419 0 -877 118 -1051
271 -25 22 -75 78 -111 124 -72 92 -110 114 -178 101 -93 -17 -115 -93 -54
-182 97 -141 426 -305 757 -378 456 -100 1077 -100 1527 0 493 109 846 366
928 674 31 115 15 270 -37 375 -101 201 -379 364 -739 434 -90 17 -605 81
-655 81 -10 0 -15 2 -12 5 2 3 93 14 200 25 370 38 582 97 790 220 333 198
382 601 106 867 -105 100 -200 153 -391 219 -212 72 -429 104 -747 109 -124 2
-276 0 -339 -5z"/>
<path d="M5400 3238 c-340 -32 -749 -180 -1010 -366 -120 -85 -294 -252 -376
-362 -79 -104 -185 -314 -219 -435 -47 -163 -58 -268 -52 -485 4 -160 10 -214
30 -300 87 -367 286 -638 622 -847 407 -254 933 -341 1460 -242 161 30 311 81
470 160 369 182 604 437 688 744 18 66 22 107 21 230 0 172 -12 232 -74 360
-168 346 -620 549 -1070 480 -168 -25 -333 -89 -360 -139 -18 -34 -9 -68 23
-86 26 -14 34 -13 165 32 167 58 254 72 392 65 294 -16 572 -179 679 -400 48
-97 64 -177 64 -307 0 -128 -17 -213 -62 -320 -163 -390 -704 -698 -1257 -717
l-151 -6 -6 243 c-9 314 -9 1912 0 2272 6 269 7 277 27 283 12 3 82 8 156 12
292 13 533 -46 696 -168 31 -24 91 -86 133 -139 90 -111 128 -133 200 -111 72
21 95 95 51 167 -33 52 -130 134 -227 192 -272 161 -622 227 -1013 190z"/>
<path d="M8680 3219 c-132 -26 -337 -97 -365 -125 -7 -8 -17 -14 -22 -14 -14
0 -125 -72 -223 -143 -301 -221 -512 -564 -592 -959 -33 -165 -28 -386 14
-598 22 -110 97 -314 150 -410 57 -101 198 -277 301 -376 219 -211 434 -319
792 -399 97 -22 369 -32 443 -16 251 54 323 74 450 129 261 113 458 277 626
524 126 186 197 343 248 548 21 86 23 118 23 325 0 152 -4 250 -13 290 -79
362 -241 647 -489 862 -241 208 -564 358 -827 384 -178 17 -364 9 -516 -22z
m462 -150 c111 -42 226 -175 321 -372 73 -150 72 -145 34 -152 -40 -7 -289
-35 -379 -42 l-68 -5 0 296 c0 338 -8 314 92 275z m347 -63 c150 -55 318 -164
480 -312 l23 -22 -78 -24 c-84 -27 -212 -63 -255 -72 -23 -5 -27 -1 -43 47
-36 104 -158 316 -222 387 l-35 38 43 -13 c24 -7 63 -20 87 -29z m608 -456
c38 -47 37 -54 -9 -79 -24 -13 -86 -52 -138 -87 -52 -34 -192 -113 -310 -174
-485 -252 -496 -259 -486 -285 3 -10 -5 -10 -40 1 -45 13 -48 14 -61 14 -5 0
-7 24 -6 53 0 28 2 127 2 220 l1 167 33 0 c33 0 426 46 462 55 18 4 23 -6 43
-78 12 -45 22 -90 22 -99 0 -23 1 -23 61 7 27 14 47 30 44 35 -3 5 -8 22 -10
37 -2 16 -10 51 -18 80 l-14 52 31 7 c63 13 330 94 339 103 13 13 28 5 54 -29z
m90 -132 c106 -189 161 -369 185 -610 l4 -38 -302 0 -301 0 -7 113 c-3 61 -9
144 -12 182 l-6 70 194 177 c106 98 195 178 199 178 3 0 23 -33 46 -72z m-528
-580 l1 -68 -152 0 -153 0 25 25 c14 13 79 74 145 133 l120 109 6 -66 c4 -36
7 -96 8 -133z m-824 -117 c1 -47 6 -68 31 -107 32 -52 107 -103 154 -104 19
-1 12 -6 -30 -24 -29 -13 -59 -22 -66 -19 -18 7 -690 -347 -828 -436 -115 -74
-178 -111 -191 -111 -3 0 205 193 462 430 258 236 468 430 468 430 0 0 0 -26
0 -59z m445 -36 c-7 -9 -11 -17 -8 -20 2 -2 92 -5 200 -5 l197 -1 -5 -97 c-8
-163 -27 -279 -91 -558 -4 -19 -9 -20 -46 -13 -111 23 -243 39 -342 43 -61 3
-116 5 -122 5 -10 1 -13 55 -13 235 l0 234 33 6 c61 11 124 60 153 118 23 46
40 67 53 68 2 0 -2 -7 -9 -15z m1100 -57 c0 -114 -62 -346 -131 -497 -30 -64
-123 -219 -174 -289 -2 -2 -58 14 -126 34 -68 20 -158 45 -199 56 -41 11 -76
21 -78 22 -1 2 7 38 18 82 48 186 90 454 90 571 l0 53 300 0 300 0 0 -32z
m-1050 -719 c41 -5 106 -14 143 -20 81 -13 81 -2 -3 -174 -72 -147 -143 -241
-243 -322 -72 -58 -81 -63 -127 -63 l-50 0 0 296 0 295 103 -2 c56 -1 136 -6
177 -10z m403 -78 c97 -27 229 -69 245 -80 10 -6 -4 -24 -55 -70 -137 -125
-348 -243 -516 -289 l-38 -11 40 44 c74 80 187 277 221 383 7 23 17 42 22 42
5 0 41 -9 81 -19z"/>
<path d="M16483 3012 l-93 -47 0 -117 0 -118 -75 0 -75 0 0 -65 0 -65 74 0 74
0 5 -347 c3 -221 9 -362 16 -385 15 -46 68 -92 130 -109 46 -14 275 -18 287
-6 3 3 0 38 -7 76 l-12 71 -69 0 c-72 0 -121 17 -132 45 -3 9 -6 160 -6 336
l0 319 100 0 100 0 0 65 0 65 -100 0 -100 0 0 165 c0 126 -3 165 -12 164 -7 0
-55 -21 -105 -47z"/>
<path d="M11841 2740 c-89 -19 -144 -43 -207 -91 l-64 -48 0 64 0 65 -90 0
-90 0 0 -485 0 -485 99 0 100 0 3 323 3 322 28 56 c44 91 129 138 263 147 126
7 218 -32 262 -112 15 -27 17 -73 20 -383 l3 -353 100 0 100 0 -3 383 -3 382
-27 50 c-40 76 -84 110 -189 145 -71 24 -237 35 -308 20z"/>
<path d="M14248 2740 c-170 -29 -321 -127 -383 -250 -75 -148 -74 -362 2 -502
88 -162 313 -259 565 -245 173 11 300 58 388 146 39 39 100 134 100 155 0 2
-30 7 -67 11 -38 3 -84 8 -103 11 -34 5 -38 2 -68 -45 -64 -99 -177 -147 -323
-139 -181 11 -309 116 -335 277 l-7 41 457 0 456 0 0 48 c0 69 -26 179 -56
240 -92 188 -361 296 -626 252z m285 -158 c100 -44 155 -110 172 -204 l7 -38
-341 0 c-276 0 -341 3 -341 13 0 31 33 106 61 140 36 44 104 86 168 104 69 19
215 11 274 -15z"/>
<path d="M15435 2735 c-38 -7 -89 -20 -113 -29 -187 -68 -251 -257 -129 -384
58 -61 134 -89 382 -142 205 -44 250 -57 285 -87 61 -51 30 -137 -67 -184 -56
-27 -209 -38 -294 -20 -100 21 -179 88 -196 164 -5 26 -9 28 -42 23 -20 -3
-66 -8 -103 -12 l-66 -6 13 -38 c36 -101 98 -176 184 -219 141 -72 428 -78
601 -12 221 84 285 324 116 438 -60 41 -130 63 -376 118 -107 24 -208 49 -225
55 -50 19 -75 49 -75 90 0 69 74 110 215 118 161 8 253 -27 295 -113 20 -42
24 -45 54 -41 17 3 61 8 98 11 l66 6 -8 28 c-15 52 -43 102 -74 133 -93 94
-341 141 -541 103z"/>
<path d="M10870 2245 l0 -485 100 0 100 0 0 485 0 485 -100 0 -100 0 0 -485z"/>
<path d="M12649 2568 c42 -90 146 -308 231 -485 l154 -323 96 0 96 0 227 479
c125 263 227 481 227 485 0 3 -46 6 -102 6 l-103 0 -124 -273 c-69 -149 -146
-321 -172 -380 -26 -60 -49 -110 -52 -113 -2 -2 -15 26 -29 63 -14 38 -90 211
-168 386 l-143 317 -108 0 -108 0 78 -162z"/>
</g>
</svg>
