<svg id="svg" version="1.1" xmlns="http://www.w3.org/2000/svg" xmlns:xlink="http://www.w3.org/1999/xlink" width="400" height="81.26834997064005" viewBox="0, 0, 400,81.26834997064005"><g id="svgg"><path id="path0" d="M208.457 4.599 C 208.420 4.636,207.908 4.703,207.320 4.748 C 205.812 4.862,204.778 5.021,204.583 5.167 C 204.492 5.236,203.910 5.345,203.292 5.410 C 202.673 5.474,202.167 5.579,202.167 5.644 C 202.167 5.709,201.735 5.851,201.208 5.961 C 200.681 6.071,200.175 6.188,200.083 6.222 C 199.750 6.344,199.236 6.555,198.583 6.838 C 198.217 6.997,197.729 7.183,197.500 7.251 C 196.696 7.490,194.915 8.376,194.783 8.604 C 194.710 8.730,194.521 8.833,194.363 8.833 C 194.205 8.833,193.686 9.090,193.209 9.404 C 192.733 9.718,192.172 10.028,191.963 10.094 C 191.754 10.160,191.485 10.354,191.365 10.525 C 191.245 10.696,190.907 10.958,190.615 11.108 C 190.323 11.258,189.918 11.558,189.716 11.774 C 189.514 11.990,189.277 12.167,189.189 12.167 C 189.018 12.167,188.501 12.575,187.553 13.458 C 187.233 13.756,186.922 14.001,186.861 14.002 C 186.595 14.007,182.550 18.445,182.184 19.134 C 182.056 19.375,181.869 19.659,181.767 19.766 C 181.563 19.980,181.537 20.018,180.271 21.944 C 179.779 22.693,179.328 23.499,179.268 23.736 C 179.209 23.973,179.087 24.167,178.997 24.167 C 178.907 24.167,178.833 24.307,178.833 24.480 C 178.833 24.652,178.730 24.878,178.604 24.983 C 178.478 25.087,178.281 25.509,178.166 25.920 C 178.051 26.331,177.891 26.667,177.812 26.667 C 177.732 26.667,177.667 26.779,177.667 26.917 C 177.667 27.055,177.515 27.449,177.330 27.792 C 177.145 28.136,176.948 28.700,176.892 29.045 C 176.835 29.391,176.724 29.714,176.645 29.764 C 176.565 29.813,176.500 30.006,176.500 30.192 C 176.500 30.379,176.391 30.731,176.258 30.974 C 176.124 31.218,175.933 31.792,175.833 32.250 C 175.732 32.708,175.615 33.233,175.571 33.417 C 175.488 33.769,175.082 36.128,174.840 37.667 C 174.690 38.623,174.787 44.232,174.962 44.667 C 175.017 44.804,175.154 45.667,175.266 46.583 C 175.379 47.500,175.522 48.438,175.585 48.667 C 175.648 48.896,175.762 49.488,175.839 49.983 C 175.915 50.478,176.047 50.928,176.132 50.983 C 176.216 51.038,176.337 51.365,176.400 51.708 C 176.463 52.052,176.570 52.333,176.638 52.333 C 176.705 52.333,176.776 52.521,176.795 52.751 C 176.826 53.121,177.243 54.245,177.909 55.750 C 178.030 56.025,178.185 56.433,178.253 56.658 C 178.321 56.882,178.518 57.294,178.692 57.574 C 178.865 57.854,179.097 58.290,179.207 58.542 C 179.317 58.794,179.465 59.000,179.537 59.000 C 179.608 59.000,179.667 59.077,179.667 59.170 C 179.667 59.322,180.447 60.621,180.666 60.833 C 180.713 60.879,180.973 61.217,181.242 61.583 C 181.512 61.950,181.781 62.288,181.841 62.333 C 181.901 62.379,182.048 62.604,182.168 62.833 C 182.871 64.178,187.323 68.639,189.569 70.250 C 189.825 70.433,190.359 70.827,190.757 71.125 C 191.155 71.423,191.518 71.667,191.565 71.667 C 191.612 71.667,191.977 71.887,192.376 72.157 C 193.139 72.672,195.989 74.167,196.208 74.167 C 196.278 74.167,196.707 74.346,197.161 74.565 C 197.615 74.784,198.365 75.054,198.827 75.165 C 199.290 75.276,199.709 75.434,199.760 75.517 C 199.811 75.599,199.956 75.667,200.082 75.667 C 200.208 75.667,200.523 75.756,200.781 75.864 C 201.039 75.973,201.662 76.153,202.167 76.264 C 202.671 76.375,203.271 76.516,203.500 76.578 C 203.729 76.640,204.460 76.776,205.125 76.879 C 205.790 76.982,206.333 77.115,206.333 77.175 C 206.333 77.471,215.486 77.520,215.852 77.226 C 215.979 77.124,216.664 76.987,217.374 76.923 C 218.084 76.858,218.708 76.735,218.760 76.650 C 218.813 76.564,218.929 76.540,219.019 76.595 C 219.108 76.650,219.272 76.621,219.382 76.530 C 219.493 76.439,219.958 76.311,220.417 76.245 C 220.875 76.179,221.325 76.068,221.417 75.998 C 221.508 75.928,221.902 75.818,222.292 75.754 C 222.681 75.690,223.000 75.581,223.000 75.512 C 223.000 75.443,223.412 75.294,223.917 75.181 C 224.421 75.068,224.833 74.915,224.833 74.840 C 224.833 74.765,225.096 74.655,225.417 74.594 C 225.737 74.534,226.000 74.427,226.000 74.357 C 226.000 74.287,226.375 74.134,226.833 74.016 C 227.292 73.899,227.667 73.740,227.667 73.665 C 227.667 73.589,227.892 73.477,228.167 73.417 C 228.442 73.356,228.667 73.238,228.667 73.153 C 228.667 73.069,228.768 73.000,228.891 73.000 C 229.015 73.000,229.289 72.850,229.500 72.667 C 229.711 72.483,229.945 72.333,230.018 72.333 C 230.092 72.333,230.586 72.033,231.118 71.665 C 231.649 71.297,232.222 70.904,232.391 70.790 C 232.560 70.676,232.841 70.471,233.017 70.333 C 233.193 70.196,233.530 69.933,233.768 69.750 C 235.083 68.733,238.000 66.003,238.000 65.789 C 238.000 65.743,238.281 65.414,238.625 65.058 C 239.676 63.968,240.333 63.145,240.333 62.918 C 240.333 62.800,240.446 62.659,240.583 62.606 C 240.721 62.554,240.833 62.396,240.833 62.255 C 240.833 62.115,240.910 62.000,241.004 62.000 C 241.098 62.000,241.246 61.813,241.333 61.583 C 241.420 61.354,241.569 61.167,241.663 61.167 C 241.756 61.167,241.833 61.066,241.833 60.942 C 241.833 60.819,241.985 60.542,242.171 60.328 C 242.357 60.114,242.553 59.765,242.606 59.553 C 242.659 59.340,242.767 59.167,242.847 59.167 C 242.926 59.167,243.183 58.773,243.419 58.292 C 243.654 57.810,243.914 57.304,243.997 57.167 C 244.163 56.888,244.658 55.767,245.062 54.750 C 246.063 52.236,246.480 50.996,246.601 50.179 C 246.662 49.760,246.766 49.379,246.830 49.333 C 246.894 49.288,247.034 48.762,247.141 48.167 C 247.248 47.571,247.391 46.821,247.459 46.500 C 247.726 45.243,247.594 35.400,247.304 34.915 C 247.249 34.824,247.150 34.337,247.084 33.833 C 247.017 33.329,246.907 32.842,246.840 32.750 C 246.700 32.561,246.241 30.483,246.297 30.292 C 246.317 30.223,246.268 30.167,246.188 30.167 C 246.108 30.167,245.995 29.867,245.936 29.500 C 245.877 29.133,245.771 28.833,245.699 28.833 C 245.628 28.833,245.477 28.490,245.365 28.070 C 245.181 27.383,244.821 26.531,243.804 24.375 C 243.621 23.985,243.402 23.667,243.318 23.667 C 243.235 23.667,243.167 23.551,243.167 23.409 C 243.167 23.267,242.904 22.740,242.583 22.239 C 242.262 21.737,242.000 21.289,242.000 21.242 C 242.000 21.170,241.044 19.879,240.499 19.215 C 240.408 19.105,240.333 18.953,240.333 18.877 C 240.333 18.802,240.202 18.623,240.042 18.479 C 239.881 18.334,239.487 17.888,239.167 17.487 C 238.060 16.102,234.586 12.834,233.728 12.370 C 233.511 12.252,233.333 12.083,233.333 11.995 C 233.333 11.906,233.218 11.833,233.078 11.833 C 232.938 11.833,232.780 11.721,232.727 11.583 C 232.674 11.446,232.538 11.333,232.425 11.333 C 232.311 11.333,232.083 11.183,231.917 11.000 C 231.751 10.817,231.551 10.667,231.472 10.667 C 231.394 10.667,230.971 10.423,230.532 10.125 C 230.093 9.827,229.587 9.490,229.408 9.375 C 228.946 9.079,227.074 8.167,226.930 8.167 C 226.864 8.167,226.697 8.054,226.560 7.917 C 226.422 7.779,226.165 7.667,225.988 7.667 C 225.811 7.667,225.667 7.605,225.667 7.530 C 225.667 7.455,225.292 7.291,224.833 7.167 C 224.375 7.042,224.000 6.882,224.000 6.811 C 224.000 6.740,223.719 6.631,223.375 6.569 C 223.031 6.507,222.675 6.401,222.583 6.333 C 222.492 6.265,222.004 6.111,221.500 5.990 C 220.996 5.869,220.508 5.717,220.417 5.651 C 220.325 5.585,219.875 5.477,219.417 5.411 C 218.958 5.345,218.498 5.223,218.394 5.141 C 218.011 4.837,208.725 4.330,208.457 4.599 M33.333 5.011 C 32.646 5.088,31.258 5.234,30.250 5.334 C 29.242 5.435,28.304 5.560,28.167 5.612 C 28.029 5.664,27.729 5.729,27.500 5.757 C 27.271 5.785,26.521 5.922,25.833 6.061 C 25.146 6.200,24.133 6.403,23.583 6.512 C 23.033 6.621,22.546 6.764,22.500 6.830 C 22.454 6.896,22.117 6.996,21.750 7.054 C 21.005 7.170,18.841 7.815,18.583 7.997 C 18.492 8.062,18.060 8.211,17.625 8.329 C 17.190 8.447,16.833 8.600,16.833 8.670 C 16.833 8.739,16.571 8.845,16.250 8.906 C 15.929 8.966,15.667 9.081,15.667 9.161 C 15.667 9.241,15.423 9.359,15.125 9.422 C 14.827 9.485,14.171 9.778,13.667 10.072 C 13.162 10.366,12.394 10.789,11.958 11.012 C 11.523 11.234,11.167 11.472,11.167 11.541 C 11.167 11.610,11.052 11.667,10.911 11.667 C 10.771 11.667,10.613 11.779,10.560 11.917 C 10.508 12.054,10.379 12.169,10.274 12.172 C 10.048 12.177,9.266 12.875,8.625 13.643 C 7.649 14.813,8.225 17.283,9.545 17.588 C 10.525 17.814,12.500 17.644,12.500 17.333 C 12.500 17.256,12.730 17.143,13.011 17.081 C 13.292 17.019,13.563 16.863,13.612 16.734 C 13.662 16.605,13.792 16.500,13.901 16.500 C 14.140 16.500,14.683 16.105,15.445 15.375 C 15.756 15.077,16.054 14.833,16.106 14.833 C 16.159 14.833,16.438 14.645,16.726 14.414 C 17.738 13.605,18.927 12.833,19.163 12.833 C 19.257 12.833,19.333 12.764,19.333 12.680 C 19.333 12.596,19.558 12.477,19.833 12.417 C 20.108 12.356,20.333 12.238,20.333 12.153 C 20.333 12.069,20.406 12.000,20.495 12.000 C 20.584 12.000,21.067 11.813,21.568 11.583 C 22.069 11.354,22.559 11.167,22.658 11.167 C 22.757 11.167,22.968 11.093,23.127 11.003 C 23.574 10.749,25.379 10.190,26.146 10.067 C 26.524 10.007,26.833 9.903,26.833 9.837 C 26.833 9.770,27.640 9.619,28.625 9.501 C 29.610 9.382,30.508 9.214,30.619 9.127 C 30.730 9.040,32.474 8.927,34.494 8.876 L 38.167 8.783 38.167 22.725 L 38.167 36.667 31.686 36.667 C 24.718 36.667,24.527 36.688,24.057 37.534 C 23.582 38.391,23.934 40.167,24.579 40.167 C 24.704 40.167,24.832 40.246,24.864 40.343 C 24.903 40.460,27.126 40.552,31.545 40.619 L 38.167 40.720 38.167 57.385 L 38.167 74.051 33.983 73.933 C 31.681 73.868,29.675 73.749,29.524 73.670 C 29.373 73.591,28.500 73.450,27.583 73.358 C 25.402 73.138,22.439 72.654,22.333 72.501 C 22.287 72.434,21.875 72.325,21.417 72.258 C 20.958 72.190,20.508 72.076,20.417 72.002 C 20.325 71.929,19.800 71.778,19.250 71.667 C 18.700 71.555,18.175 71.406,18.083 71.335 C 17.992 71.263,17.668 71.152,17.364 71.087 C 17.060 71.022,16.610 70.864,16.364 70.735 C 16.118 70.607,15.804 70.499,15.667 70.495 C 15.529 70.492,15.117 70.344,14.750 70.167 C 14.383 69.990,13.990 69.842,13.875 69.839 C 13.760 69.836,13.667 69.773,13.667 69.700 C 13.667 69.627,13.404 69.472,13.083 69.356 C 12.763 69.240,12.500 69.075,12.500 68.989 C 12.500 68.903,12.399 68.833,12.276 68.833 C 12.152 68.833,11.878 68.683,11.667 68.500 C 11.455 68.317,11.233 68.167,11.173 68.167 C 10.956 68.167,8.577 65.733,8.333 65.261 C 8.196 64.995,7.877 64.571,7.625 64.318 C 7.373 64.066,7.167 63.816,7.167 63.764 C 7.167 63.599,6.447 62.833,6.291 62.833 C 6.210 62.833,6.024 62.714,5.878 62.569 C 5.663 62.354,5.297 62.315,3.918 62.361 L 2.222 62.417 1.611 63.065 C 1.001 63.713,0.674 65.500,1.167 65.500 C 1.258 65.500,1.333 65.631,1.333 65.791 C 1.333 66.228,2.615 68.026,3.265 68.500 C 3.579 68.729,4.079 69.129,4.376 69.389 C 4.674 69.649,5.254 70.058,5.667 70.298 C 6.079 70.538,6.454 70.775,6.500 70.825 C 6.546 70.876,7.033 71.142,7.583 71.417 C 8.133 71.692,8.621 71.958,8.667 72.009 C 8.851 72.213,10.129 72.799,10.632 72.909 C 10.926 72.974,11.167 73.092,11.167 73.172 C 11.167 73.253,11.429 73.367,11.750 73.428 C 12.071 73.488,12.333 73.598,12.333 73.673 C 12.333 73.748,12.746 73.902,13.250 74.015 C 13.754 74.127,14.167 74.273,14.167 74.339 C 14.167 74.404,14.482 74.508,14.867 74.569 C 15.252 74.631,15.654 74.753,15.759 74.841 C 15.924 74.977,16.948 75.249,17.836 75.392 C 17.975 75.414,18.163 75.478,18.253 75.533 C 18.343 75.589,18.792 75.688,19.250 75.755 C 19.708 75.821,20.159 75.935,20.252 76.008 C 20.344 76.081,20.907 76.194,21.502 76.259 C 22.097 76.324,22.659 76.436,22.752 76.509 C 22.844 76.581,24.006 76.736,25.335 76.852 C 26.663 76.969,27.804 77.143,27.869 77.240 C 28.055 77.516,47.700 77.484,47.792 77.208 C 47.833 77.083,48.158 77.000,48.604 77.000 C 49.012 77.000,50.037 76.922,50.882 76.827 C 52.786 76.612,52.878 76.597,53.083 76.474 C 53.175 76.419,53.755 76.322,54.373 76.257 C 54.991 76.193,55.535 76.079,55.581 76.003 C 55.628 75.928,56.116 75.814,56.666 75.750 C 57.217 75.686,57.667 75.582,57.667 75.519 C 57.667 75.456,57.798 75.394,57.958 75.382 C 58.519 75.338,59.918 74.964,60.075 74.816 C 60.162 74.734,60.387 74.666,60.575 74.666 C 60.763 74.665,61.109 74.564,61.344 74.441 C 61.580 74.319,61.992 74.163,62.261 74.096 C 62.796 73.963,63.042 73.859,65.225 72.849 C 66.036 72.474,66.767 72.167,66.850 72.167 C 66.932 72.167,67.000 72.108,67.000 72.037 C 67.000 71.965,67.206 71.814,67.458 71.701 C 67.939 71.486,68.578 71.130,69.000 70.841 C 70.351 69.916,71.183 69.324,71.441 69.105 C 71.896 68.719,74.876 65.753,75.165 65.399 C 75.627 64.834,76.167 63.986,76.167 63.826 C 76.167 63.738,76.237 63.667,76.323 63.667 C 76.408 63.667,76.573 63.404,76.689 63.083 C 76.805 62.763,76.952 62.500,77.015 62.500 C 77.078 62.500,77.179 62.238,77.239 61.917 C 77.299 61.596,77.413 61.333,77.491 61.333 C 77.569 61.333,77.712 60.940,77.808 60.458 C 77.904 59.977,78.070 59.171,78.177 58.667 C 78.406 57.584,78.288 53.888,78.015 53.615 C 77.915 53.515,77.833 53.253,77.833 53.034 C 77.833 52.814,77.712 52.360,77.563 52.025 C 76.917 50.569,76.436 49.667,76.306 49.667 C 76.229 49.667,76.167 49.558,76.167 49.425 C 76.167 49.292,76.069 49.123,75.950 49.050 C 75.830 48.977,75.520 48.617,75.261 48.250 C 75.001 47.883,74.264 47.171,73.622 46.667 C 72.981 46.163,72.307 45.621,72.125 45.463 C 71.943 45.306,71.637 45.127,71.446 45.066 C 71.255 45.006,71.004 44.872,70.889 44.770 C 70.359 44.300,70.192 44.201,69.616 44.011 C 69.277 43.899,69.000 43.744,69.000 43.667 C 69.000 43.590,68.775 43.477,68.500 43.417 C 68.225 43.356,68.000 43.248,68.000 43.175 C 68.000 43.103,67.661 42.948,67.246 42.832 C 66.831 42.716,66.455 42.563,66.411 42.492 C 66.368 42.421,66.032 42.312,65.666 42.250 C 65.300 42.188,65.000 42.077,65.000 42.004 C 65.000 41.931,64.662 41.821,64.250 41.759 C 63.837 41.697,63.500 41.585,63.500 41.510 C 63.500 41.434,62.900 41.276,62.167 41.156 C 61.433 41.037,60.833 40.887,60.833 40.823 C 60.833 40.758,60.327 40.652,59.708 40.586 C 59.090 40.521,58.508 40.408,58.417 40.335 C 58.325 40.262,57.275 40.116,56.083 40.011 C 54.892 39.906,53.692 39.780,53.417 39.731 C 53.142 39.683,51.979 39.537,50.833 39.408 C 46.864 38.958,46.521 38.910,46.400 38.789 C 46.333 38.722,46.647 38.660,47.097 38.653 C 47.548 38.645,48.067 38.609,48.250 38.572 C 48.433 38.536,49.521 38.425,50.667 38.327 C 51.813 38.228,52.900 38.081,53.083 38.000 C 53.267 37.918,53.960 37.803,54.625 37.742 C 55.290 37.682,55.833 37.580,55.833 37.515 C 55.833 37.451,56.508 37.298,57.333 37.176 C 58.158 37.054,58.833 36.896,58.833 36.826 C 58.833 36.755,59.208 36.646,59.667 36.583 C 60.125 36.520,60.500 36.413,60.500 36.344 C 60.500 36.276,60.913 36.127,61.417 36.015 C 61.921 35.902,62.333 35.748,62.333 35.673 C 62.333 35.598,62.596 35.488,62.917 35.428 C 63.237 35.367,63.500 35.247,63.500 35.159 C 63.500 35.072,63.624 35.000,63.776 35.000 C 64.070 35.000,65.860 34.200,66.000 34.006 C 66.046 33.943,66.308 33.779,66.583 33.643 C 67.117 33.378,67.788 32.996,68.075 32.793 C 69.827 31.554,71.498 29.879,72.099 28.757 C 72.200 28.570,72.472 28.079,72.704 27.667 C 72.936 27.254,73.182 26.654,73.251 26.333 C 73.319 26.012,73.460 25.697,73.563 25.631 C 73.822 25.466,73.823 19.143,73.563 18.817 C 73.461 18.689,73.285 18.190,73.172 17.708 C 73.059 17.227,72.905 16.833,72.830 16.833 C 72.755 16.833,72.644 16.608,72.583 16.333 C 72.523 16.058,72.404 15.833,72.320 15.833 C 72.236 15.833,72.167 15.747,72.167 15.641 C 72.167 15.535,71.979 15.202,71.750 14.902 C 71.521 14.601,71.333 14.309,71.333 14.252 C 71.333 14.113,68.399 11.167,68.261 11.167 C 68.201 11.167,67.992 11.017,67.795 10.833 C 67.598 10.650,67.339 10.500,67.219 10.500 C 67.098 10.500,67.000 10.438,67.000 10.362 C 67.000 10.287,66.550 10.005,66.000 9.737 C 65.451 9.469,65.001 9.200,65.000 9.138 C 65.000 9.077,64.775 8.977,64.500 8.917 C 64.225 8.856,64.000 8.747,64.000 8.674 C 64.000 8.601,63.775 8.497,63.500 8.442 C 63.030 8.348,61.749 7.838,61.144 7.505 C 60.994 7.422,60.413 7.260,59.852 7.144 C 59.292 7.028,58.833 6.884,58.833 6.823 C 58.833 6.762,58.497 6.666,58.087 6.610 C 57.676 6.553,57.208 6.435,57.045 6.345 C 56.777 6.198,55.084 5.846,54.242 5.762 C 54.054 5.743,53.829 5.683,53.741 5.629 C 53.654 5.576,52.870 5.477,52.000 5.410 C 51.129 5.343,50.363 5.204,50.298 5.103 C 50.153 4.876,35.251 4.796,33.333 5.011 M125.922 4.958 C 125.376 4.991,124.851 5.080,124.756 5.155 C 124.661 5.229,124.022 5.344,123.337 5.409 C 122.651 5.474,122.015 5.574,121.923 5.631 C 121.831 5.688,121.642 5.751,121.503 5.772 C 119.822 6.022,118.833 6.230,118.833 6.332 C 118.833 6.401,118.458 6.507,118.000 6.568 C 117.542 6.628,117.167 6.736,117.167 6.806 C 117.167 6.876,116.721 7.025,116.177 7.138 C 115.633 7.250,114.977 7.452,114.719 7.587 C 114.461 7.721,114.123 7.832,113.968 7.832 C 113.813 7.833,113.644 7.903,113.591 7.987 C 113.539 8.072,113.262 8.192,112.976 8.255 C 112.689 8.318,111.809 8.666,111.019 9.029 C 110.230 9.392,109.347 9.796,109.058 9.928 C 108.769 10.059,108.451 10.167,108.350 10.167 C 108.249 10.167,108.167 10.234,108.167 10.315 C 108.167 10.397,107.984 10.510,107.762 10.566 C 107.539 10.621,107.256 10.761,107.134 10.875 C 107.011 10.990,106.556 11.269,106.122 11.497 C 105.688 11.724,105.333 11.954,105.333 12.007 C 105.333 12.061,105.074 12.206,104.757 12.331 C 104.440 12.455,104.142 12.656,104.096 12.778 C 104.049 12.900,103.902 13.000,103.769 13.000 C 103.636 13.000,103.503 13.056,103.472 13.125 C 103.442 13.194,103.079 13.475,102.667 13.750 C 102.254 14.024,101.857 14.343,101.783 14.458 C 101.710 14.573,101.568 14.667,101.468 14.667 C 101.368 14.667,101.071 14.892,100.808 15.167 C 100.545 15.442,100.258 15.667,100.169 15.667 C 99.809 15.667,94.333 21.362,94.333 21.736 C 94.333 21.790,94.202 21.978,94.042 22.155 C 93.579 22.664,93.413 22.886,92.901 23.676 C 92.636 24.083,92.369 24.455,92.306 24.502 C 92.244 24.548,92.143 24.787,92.082 25.031 C 92.020 25.276,91.874 25.513,91.756 25.558 C 91.639 25.603,91.490 25.851,91.425 26.110 C 91.360 26.368,91.256 26.618,91.193 26.665 C 91.085 26.747,90.507 27.908,89.937 29.192 C 89.788 29.527,89.667 29.916,89.667 30.057 C 89.667 30.198,89.598 30.356,89.515 30.408 C 89.431 30.459,89.312 30.801,89.250 31.168 C 89.188 31.534,89.076 31.833,89.000 31.833 C 88.925 31.833,88.773 32.377,88.663 33.042 C 88.552 33.706,88.399 34.328,88.322 34.424 C 88.246 34.520,88.132 35.120,88.069 35.757 C 88.006 36.395,87.872 37.022,87.769 37.151 C 87.509 37.478,87.509 47.855,87.769 48.183 C 87.872 48.311,88.006 48.938,88.069 49.576 C 88.132 50.214,88.242 50.814,88.315 50.909 C 88.387 51.005,88.541 51.627,88.655 52.291 C 88.770 52.955,88.932 53.541,89.015 53.593 C 89.098 53.644,89.167 53.813,89.168 53.968 C 89.168 54.123,89.269 54.442,89.392 54.678 C 89.515 54.913,89.670 55.323,89.736 55.589 C 89.803 55.854,90.002 56.389,90.179 56.777 C 90.355 57.164,90.500 57.555,90.500 57.644 C 90.500 57.733,90.556 57.831,90.625 57.861 C 90.694 57.892,90.938 58.287,91.167 58.740 C 91.396 59.193,91.865 59.996,92.208 60.524 C 92.552 61.052,92.833 61.556,92.833 61.645 C 92.833 61.733,92.896 61.831,92.973 61.861 C 93.051 61.892,93.397 62.292,93.744 62.750 C 95.246 64.734,96.978 66.586,98.167 67.477 C 98.487 67.718,98.810 68.009,98.883 68.124 C 98.957 68.239,99.119 68.333,99.244 68.333 C 99.370 68.333,99.497 68.405,99.528 68.493 C 99.577 68.633,100.737 69.541,101.609 70.122 C 101.778 70.235,102.201 70.516,102.549 70.747 C 102.897 70.978,103.253 71.167,103.341 71.167 C 103.428 71.167,103.500 71.233,103.500 71.313 C 103.500 71.394,103.744 71.558,104.042 71.679 C 104.340 71.799,104.621 71.942,104.667 71.997 C 104.813 72.172,107.575 73.500,107.792 73.500 C 107.906 73.500,108.000 73.572,108.000 73.660 C 108.000 73.748,108.319 73.912,108.708 74.024 C 109.098 74.136,109.565 74.327,109.745 74.447 C 109.926 74.568,110.239 74.667,110.440 74.667 C 110.641 74.667,110.831 74.723,110.861 74.792 C 110.937 74.963,112.949 75.628,113.804 75.765 C 114.187 75.826,114.500 75.941,114.500 76.021 C 114.500 76.101,114.673 76.167,114.885 76.167 C 115.097 76.167,115.828 76.311,116.510 76.489 C 117.192 76.666,118.313 76.863,119.000 76.927 C 119.688 76.990,120.355 77.127,120.484 77.230 C 120.822 77.500,134.462 77.492,135.016 77.221 C 135.237 77.114,136.054 76.946,136.833 76.848 C 138.531 76.634,138.701 76.603,138.917 76.473 C 139.008 76.417,139.477 76.318,139.958 76.253 C 140.439 76.189,140.871 76.074,140.917 75.999 C 140.964 75.924,141.320 75.809,141.709 75.745 C 142.098 75.680,142.607 75.530,142.839 75.411 C 143.071 75.292,143.540 75.143,143.881 75.079 C 144.221 75.015,144.500 74.896,144.500 74.815 C 144.500 74.733,144.631 74.666,144.792 74.666 C 144.952 74.665,145.298 74.553,145.561 74.416 C 145.823 74.279,146.102 74.167,146.181 74.167 C 146.259 74.167,146.733 73.979,147.234 73.750 C 147.735 73.521,148.225 73.333,148.323 73.333 C 148.420 73.333,148.500 73.266,148.500 73.185 C 148.500 73.103,148.702 72.986,148.948 72.924 C 149.195 72.862,149.600 72.666,149.849 72.489 C 150.098 72.312,150.384 72.167,150.484 72.167 C 150.584 72.167,150.667 72.108,150.667 72.037 C 150.667 71.965,150.873 71.813,151.125 71.700 C 151.870 71.364,152.565 70.959,152.802 70.722 C 152.924 70.600,153.133 70.500,153.267 70.500 C 153.401 70.500,153.554 70.387,153.606 70.250 C 153.659 70.112,153.803 70.000,153.926 70.000 C 154.049 70.000,154.210 69.906,154.283 69.791 C 154.357 69.676,154.736 69.366,155.125 69.102 C 155.515 68.837,156.008 68.462,156.219 68.269 C 156.431 68.075,157.049 67.542,157.591 67.083 C 158.634 66.203,159.992 64.824,159.997 64.642 C 159.999 64.582,160.244 64.280,160.542 63.971 C 160.840 63.661,161.196 63.232,161.333 63.017 C 161.471 62.802,161.664 62.541,161.763 62.437 C 161.934 62.257,162.220 61.766,162.697 60.833 C 162.814 60.604,162.958 60.379,163.016 60.333 C 163.207 60.183,164.000 58.391,164.000 58.109 C 164.000 57.957,164.069 57.833,164.153 57.833 C 164.238 57.833,164.359 57.590,164.423 57.292 C 164.486 56.994,164.596 56.675,164.667 56.583 C 164.737 56.492,164.886 55.854,164.997 55.167 C 165.108 54.479,165.286 53.737,165.391 53.516 C 165.638 53.002,165.649 46.367,165.404 46.199 C 165.311 46.135,165.137 45.483,165.017 44.750 C 164.897 44.017,164.741 43.379,164.670 43.333 C 164.600 43.288,164.489 43.006,164.424 42.708 C 164.360 42.410,164.244 42.167,164.167 42.167 C 164.090 42.167,163.975 41.923,163.911 41.625 C 163.848 41.327,163.701 40.971,163.584 40.833 C 163.468 40.696,163.321 40.415,163.258 40.208 C 163.196 40.002,163.074 39.833,162.989 39.833 C 162.903 39.833,162.833 39.720,162.833 39.582 C 162.833 39.443,162.683 39.202,162.500 39.045 C 162.317 38.888,162.167 38.688,162.167 38.602 C 162.167 38.407,162.022 38.243,160.386 36.583 C 159.046 35.224,158.070 34.333,157.918 34.333 C 157.872 34.333,157.463 34.067,157.009 33.740 C 156.053 33.054,152.719 31.334,152.340 31.332 C 152.199 31.332,151.874 31.222,151.618 31.089 C 151.362 30.955,150.892 30.797,150.574 30.737 C 150.256 30.678,149.958 30.568,149.912 30.493 C 149.866 30.418,149.398 30.305,148.872 30.241 C 148.347 30.178,147.813 30.042,147.685 29.940 C 147.367 29.685,139.758 29.580,138.333 29.812 C 136.173 30.162,135.082 30.389,135.000 30.504 C 134.954 30.568,134.560 30.673,134.125 30.737 C 133.690 30.801,133.333 30.918,133.333 30.997 C 133.333 31.076,133.093 31.193,132.798 31.258 C 129.234 32.040,127.951 35.833,131.250 35.833 C 131.846 35.833,132.333 35.767,132.333 35.685 C 132.333 35.604,132.593 35.488,132.910 35.429 C 133.227 35.370,133.695 35.212,133.951 35.078 C 134.207 34.945,134.531 34.835,134.671 34.834 C 134.811 34.834,135.083 34.723,135.275 34.589 C 135.467 34.454,135.934 34.295,136.312 34.234 C 136.690 34.174,137.000 34.071,137.000 34.006 C 137.000 33.801,140.237 33.464,142.285 33.456 C 144.306 33.448,147.667 33.793,147.667 34.008 C 147.667 34.075,147.926 34.178,148.243 34.238 C 148.560 34.297,149.179 34.499,149.618 34.687 C 150.057 34.874,150.679 35.140,151.000 35.277 C 152.058 35.731,153.000 36.247,153.000 36.375 C 153.000 36.444,153.090 36.500,153.199 36.500 C 153.375 36.500,154.614 37.264,154.833 37.508 C 154.879 37.559,155.214 37.822,155.577 38.092 C 156.456 38.745,157.462 39.785,157.582 40.164 C 157.636 40.332,157.789 40.511,157.923 40.563 C 158.057 40.614,158.167 40.771,158.167 40.911 C 158.167 41.052,158.234 41.167,158.317 41.167 C 158.502 41.167,159.833 43.786,159.834 44.152 C 159.835 44.298,159.946 44.629,160.081 44.888 C 160.216 45.147,160.376 45.842,160.437 46.434 C 160.497 47.025,160.611 47.549,160.690 47.598 C 160.877 47.713,160.877 51.620,160.691 51.735 C 160.613 51.783,160.499 52.363,160.437 53.024 C 160.376 53.685,160.264 54.306,160.188 54.404 C 160.112 54.503,159.953 55.052,159.836 55.625 C 159.718 56.198,159.562 56.667,159.490 56.667 C 159.419 56.667,159.310 56.892,159.250 57.167 C 159.190 57.442,159.083 57.667,159.013 57.667 C 158.944 57.667,158.788 57.967,158.667 58.333 C 158.546 58.700,158.384 59.000,158.307 59.000 C 158.230 59.000,158.167 59.072,158.167 59.159 C 158.167 59.299,157.994 59.585,157.122 60.891 C 156.898 61.226,156.813 61.329,155.583 62.752 C 155.125 63.282,154.647 63.799,154.521 63.900 C 154.395 64.001,154.045 64.314,153.743 64.595 C 153.440 64.877,152.906 65.323,152.555 65.586 C 152.204 65.850,151.879 66.107,151.833 66.158 C 151.787 66.209,151.412 66.476,151.000 66.750 C 150.587 67.024,150.212 67.287,150.167 67.333 C 149.930 67.572,148.191 68.636,147.871 68.738 C 147.667 68.803,147.500 68.914,147.500 68.985 C 147.500 69.055,147.200 69.212,146.833 69.333 C 146.467 69.454,146.167 69.616,146.167 69.693 C 146.167 69.770,146.088 69.833,145.991 69.833 C 145.894 69.833,145.482 69.983,145.074 70.167 C 144.667 70.350,144.000 70.650,143.592 70.833 C 143.185 71.017,142.771 71.167,142.674 71.167 C 142.576 71.167,142.365 71.236,142.206 71.321 C 141.832 71.520,140.457 71.973,139.500 72.212 C 139.087 72.315,138.712 72.450,138.667 72.512 C 138.597 72.607,136.448 73.030,136.044 73.029 C 135.974 73.029,135.838 73.094,135.741 73.174 C 135.644 73.254,134.950 73.371,134.199 73.434 C 133.448 73.497,132.833 73.612,132.833 73.691 C 132.833 73.769,131.408 73.833,129.667 73.833 L 126.500 73.833 126.500 61.593 C 126.500 53.613,126.442 49.317,126.333 49.250 C 126.107 49.110,126.106 38.460,126.332 38.234 C 126.439 38.128,126.513 32.876,126.541 23.493 L 126.583 8.917 127.458 8.866 C 127.940 8.839,128.333 8.745,128.333 8.658 C 128.333 8.563,129.863 8.500,132.167 8.500 C 134.275 8.500,136.000 8.564,136.000 8.642 C 136.000 8.720,136.650 8.834,137.445 8.895 C 138.240 8.956,138.971 9.069,139.070 9.145 C 139.169 9.222,139.831 9.381,140.542 9.499 C 141.252 9.617,141.833 9.770,141.833 9.838 C 141.833 9.907,142.096 10.012,142.417 10.072 C 142.737 10.133,143.000 10.245,143.000 10.322 C 143.000 10.400,143.253 10.510,143.562 10.568 C 143.871 10.626,144.295 10.822,144.504 11.004 C 144.713 11.185,144.985 11.333,145.109 11.333 C 145.232 11.333,145.333 11.390,145.333 11.459 C 145.333 11.529,145.568 11.689,145.854 11.816 C 146.141 11.943,146.620 12.280,146.920 12.565 C 147.220 12.850,147.679 13.273,147.941 13.506 C 148.484 13.988,149.039 14.623,149.753 15.583 C 150.027 15.950,150.325 16.349,150.417 16.470 C 150.974 17.207,151.851 18.015,152.267 18.173 C 153.724 18.727,156.500 18.098,156.500 17.213 C 156.500 17.096,156.575 17.000,156.667 17.000 C 156.759 17.000,156.833 16.556,156.833 16.000 C 156.833 15.450,156.764 15.000,156.680 15.000 C 156.596 15.000,156.477 14.775,156.417 14.500 C 156.356 14.225,156.238 14.000,156.153 14.000 C 156.069 14.000,156.000 13.901,156.000 13.781 C 156.000 13.515,153.689 11.167,153.427 11.167 C 153.325 11.167,153.117 11.035,152.965 10.875 C 152.291 10.160,148.829 8.167,148.263 8.167 C 148.119 8.167,148.000 8.106,148.000 8.031 C 148.000 7.877,146.598 7.237,145.888 7.067 C 145.629 7.005,145.342 6.896,145.250 6.825 C 145.158 6.754,144.802 6.644,144.458 6.580 C 144.115 6.515,143.833 6.396,143.833 6.315 C 143.833 6.233,143.700 6.167,143.536 6.167 C 143.373 6.167,142.829 6.052,142.328 5.911 C 141.412 5.655,139.347 5.278,137.333 5.000 C 136.305 4.858,128.039 4.827,125.922 4.958 M256.291 5.228 C 255.620 5.478,254.738 6.084,253.889 6.878 C 253.599 7.149,253.281 7.320,253.181 7.259 C 252.826 7.039,252.637 8.073,252.697 9.904 C 252.738 11.150,252.822 11.746,252.962 11.793 C 253.075 11.830,253.167 11.970,253.167 12.104 C 253.167 12.237,253.550 12.723,254.018 13.184 C 254.778 13.932,255.127 14.159,256.000 14.475 C 257.028 14.846,259.606 14.574,260.503 14.000 C 261.413 13.417,262.000 12.921,262.000 12.735 C 262.000 12.680,262.150 12.445,262.333 12.212 C 262.517 11.979,262.667 11.648,262.667 11.478 C 262.667 11.307,262.742 11.167,262.833 11.167 C 262.933 11.167,263.000 10.500,263.000 9.500 C 263.000 8.500,262.933 7.833,262.833 7.833 C 262.742 7.833,262.667 7.699,262.667 7.535 C 262.667 7.353,262.532 7.227,262.320 7.212 C 262.130 7.197,261.650 6.887,261.254 6.521 C 259.808 5.189,257.799 4.665,256.291 5.228 M259.500 6.361 C 259.500 6.437,259.599 6.500,259.720 6.500 C 260.719 6.500,261.982 10.413,261.149 10.928 C 261.020 11.008,261.030 11.082,261.184 11.178 C 262.295 11.864,259.096 13.997,257.337 13.743 C 255.715 13.508,253.540 11.657,254.319 11.175 C 254.459 11.089,254.458 10.845,254.316 10.228 C 254.090 9.249,254.438 7.728,255.022 7.144 C 255.697 6.469,256.552 6.000,257.107 6.000 C 257.415 6.000,257.667 5.935,257.667 5.856 C 257.667 5.776,258.079 5.826,258.583 5.966 C 259.087 6.107,259.500 6.284,259.500 6.361 M214.552 9.362 C 215.952 9.949,218.833 12.289,218.833 12.839 C 218.833 12.933,218.939 13.051,219.068 13.101 C 219.197 13.150,219.392 13.405,219.500 13.667 C 219.608 13.928,219.803 14.183,219.932 14.233 C 220.061 14.282,220.167 14.438,220.167 14.578 C 220.167 14.718,220.242 14.833,220.333 14.833 C 220.425 14.833,220.502 14.927,220.504 15.042 C 220.506 15.156,220.654 15.438,220.833 15.667 C 221.013 15.896,221.161 16.209,221.163 16.363 C 221.165 16.517,221.261 16.742,221.375 16.863 C 221.691 17.196,223.000 19.979,223.000 20.317 C 223.000 20.418,223.075 20.500,223.167 20.500 C 223.502 20.500,223.322 20.996,222.958 21.074 C 221.739 21.334,220.565 21.492,219.167 21.586 C 218.296 21.644,217.076 21.787,216.455 21.904 C 215.835 22.020,214.760 22.132,214.067 22.152 L 212.807 22.189 212.855 15.970 C 212.915 8.062,212.773 8.616,214.552 9.362 M389.333 9.149 C 389.333 9.230,389.144 9.345,388.913 9.403 C 388.682 9.461,387.671 9.900,386.666 10.379 L 384.839 11.250 384.836 14.125 L 384.833 17.000 383.083 17.000 L 381.333 17.000 381.333 18.750 L 381.333 20.500 383.083 20.500 L 384.833 20.500 384.833 28.325 C 384.833 32.804,384.900 36.315,384.989 36.534 C 385.075 36.744,385.190 37.195,385.246 37.534 C 385.347 38.163,386.406 39.500,386.801 39.500 C 386.911 39.500,387.000 39.565,387.000 39.645 C 387.000 39.725,387.356 39.880,387.792 39.991 C 388.227 40.101,388.714 40.261,388.873 40.346 C 389.273 40.559,394.667 40.547,394.667 40.333 C 394.667 40.242,394.892 40.167,395.167 40.167 C 395.757 40.167,395.805 39.876,395.431 38.572 C 395.301 38.120,395.144 37.431,395.083 37.042 L 394.971 36.333 393.527 36.320 C 389.899 36.286,390.016 36.584,390.007 27.379 L 390.000 20.509 392.458 20.463 L 394.917 20.417 394.964 18.708 L 395.012 17.000 392.506 17.000 L 390.000 17.000 390.000 13.000 C 390.000 9.111,389.991 9.000,389.667 9.000 C 389.483 9.000,389.333 9.067,389.333 9.149 M222.375 10.775 C 222.627 10.830,222.833 10.932,222.833 11.002 C 222.833 11.072,223.096 11.179,223.417 11.239 C 223.737 11.299,224.000 11.410,224.000 11.486 C 224.000 11.561,224.356 11.721,224.792 11.841 C 225.227 11.961,225.621 12.111,225.667 12.175 C 225.713 12.238,226.162 12.504,226.667 12.764 C 227.171 13.025,227.682 13.334,227.804 13.452 C 227.925 13.570,228.098 13.667,228.189 13.667 C 228.332 13.667,228.691 13.913,230.250 15.084 C 231.667 16.148,234.000 18.160,234.000 18.318 C 234.000 18.393,233.531 18.552,232.958 18.671 C 232.385 18.789,231.769 18.987,231.588 19.110 C 231.407 19.233,231.066 19.333,230.830 19.333 C 230.593 19.333,230.329 19.398,230.242 19.476 C 230.155 19.555,229.596 19.716,229.000 19.835 C 228.404 19.953,227.842 20.104,227.750 20.171 C 227.279 20.512,226.493 20.445,226.395 20.055 C 226.341 19.841,226.230 19.667,226.149 19.667 C 226.067 19.667,226.000 19.548,226.000 19.403 C 226.000 19.075,225.163 16.947,224.988 16.832 C 224.917 16.785,224.808 16.540,224.745 16.288 C 224.681 16.036,224.543 15.774,224.437 15.706 C 224.332 15.639,224.037 15.171,223.783 14.667 C 223.529 14.162,223.175 13.525,222.996 13.250 C 222.817 12.975,222.576 12.564,222.460 12.336 C 222.345 12.108,222.137 11.794,222.000 11.639 C 221.154 10.684,221.037 10.426,221.516 10.561 C 221.736 10.624,222.123 10.720,222.375 10.775 M278.000 16.643 C 278.000 16.722,277.630 16.831,277.177 16.884 C 276.351 16.982,274.632 17.620,274.528 17.868 C 274.497 17.940,274.369 18.000,274.243 18.000 C 274.116 18.000,273.598 18.338,273.090 18.752 L 272.167 19.504 272.167 18.252 L 272.167 17.000 269.667 17.000 L 267.167 17.000 267.167 28.583 L 267.167 40.167 269.833 40.167 L 272.500 40.167 272.500 32.831 C 272.500 28.770,272.567 25.366,272.651 25.206 C 272.734 25.047,272.883 24.613,272.981 24.242 C 273.236 23.280,274.063 22.108,274.747 21.740 C 275.070 21.566,275.333 21.378,275.333 21.322 C 275.333 21.266,275.652 21.120,276.042 20.997 C 276.431 20.874,276.855 20.693,276.984 20.595 C 277.490 20.208,281.989 20.372,282.917 20.811 C 283.786 21.222,285.000 22.348,285.000 22.743 C 285.000 22.869,285.094 23.003,285.208 23.042 C 285.370 23.095,285.435 25.016,285.500 31.597 L 285.583 40.083 288.217 40.129 L 290.852 40.175 290.801 31.046 L 290.750 21.917 290.357 21.095 C 290.141 20.644,289.860 20.170,289.732 20.042 C 289.605 19.914,289.500 19.735,289.500 19.644 C 289.500 19.393,288.367 18.376,287.817 18.133 C 287.551 18.015,287.333 17.862,287.333 17.793 C 287.333 17.723,287.254 17.667,287.158 17.667 C 287.061 17.667,286.643 17.513,286.230 17.324 C 285.816 17.136,285.108 16.938,284.656 16.884 C 284.203 16.831,283.833 16.722,283.833 16.643 C 283.833 16.565,282.521 16.500,280.917 16.500 C 279.313 16.500,278.000 16.565,278.000 16.643 M334.333 16.659 C 334.196 16.735,333.596 16.887,333.000 16.996 C 332.404 17.105,331.892 17.263,331.861 17.347 C 331.831 17.431,331.630 17.500,331.415 17.500 C 331.200 17.500,330.915 17.609,330.782 17.742 C 330.649 17.875,330.344 18.033,330.103 18.093 C 329.863 18.153,329.667 18.251,329.667 18.311 C 329.667 18.370,329.435 18.521,329.153 18.646 C 328.045 19.137,325.500 21.813,325.500 22.488 C 325.500 22.586,325.431 22.667,325.347 22.667 C 325.262 22.667,325.140 22.910,325.076 23.208 C 325.011 23.506,324.896 23.790,324.820 23.838 C 324.744 23.887,324.598 24.487,324.496 25.172 C 324.393 25.856,324.240 26.547,324.155 26.706 C 323.957 27.077,323.952 30.245,324.149 30.627 C 324.231 30.786,324.377 31.440,324.474 32.081 C 324.571 32.721,324.729 33.271,324.825 33.303 C 324.921 33.335,325.000 33.538,325.000 33.754 C 325.000 33.970,325.076 34.194,325.169 34.252 C 325.262 34.309,325.446 34.615,325.578 34.931 C 325.851 35.582,328.170 37.975,328.921 38.380 C 332.120 40.101,333.288 40.369,337.958 40.453 C 339.897 40.487,341.333 40.449,341.333 40.363 C 341.333 40.280,341.727 40.166,342.208 40.109 C 343.117 40.002,344.553 39.549,345.417 39.097 C 345.692 38.953,346.013 38.835,346.130 38.834 C 346.248 38.834,346.387 38.721,346.440 38.583 C 346.492 38.446,346.611 38.333,346.702 38.333 C 347.366 38.333,349.517 35.969,350.178 34.513 C 350.368 34.093,350.600 33.609,350.693 33.437 C 351.023 32.828,350.579 32.695,347.810 32.571 C 345.244 32.455,345.202 32.459,345.091 32.810 C 345.028 33.006,344.908 33.167,344.822 33.167 C 344.737 33.167,344.667 33.264,344.667 33.382 C 344.667 33.794,342.356 35.998,341.922 36.001 C 341.827 36.002,341.525 36.130,341.250 36.287 C 340.520 36.703,335.289 36.720,334.667 36.308 C 334.438 36.157,334.013 35.983,333.722 35.923 C 333.432 35.862,333.153 35.705,333.102 35.573 C 333.052 35.441,332.927 35.333,332.825 35.333 C 332.555 35.333,330.833 33.651,330.833 33.388 C 330.833 33.266,330.764 33.167,330.680 33.167 C 330.595 33.167,330.434 32.885,330.322 32.542 C 330.210 32.198,330.050 31.872,329.966 31.818 C 329.883 31.763,329.771 31.295,329.717 30.776 L 329.620 29.833 340.236 29.833 L 350.853 29.833 350.781 27.875 C 350.709 25.907,350.400 24.004,350.121 23.815 C 350.039 23.759,349.969 23.646,349.966 23.565 C 349.963 23.483,349.894 23.243,349.813 23.031 C 349.733 22.819,349.667 22.575,349.667 22.489 C 349.667 22.403,349.597 22.333,349.511 22.333 C 349.426 22.333,349.303 22.168,349.239 21.966 C 349.175 21.764,349.039 21.509,348.936 21.400 C 348.834 21.291,348.455 20.856,348.095 20.434 C 347.735 20.012,347.375 19.667,347.296 19.667 C 347.216 19.667,346.986 19.494,346.784 19.282 C 345.837 18.291,343.252 17.083,341.703 16.908 C 341.133 16.843,340.667 16.725,340.667 16.645 C 340.667 16.460,334.668 16.473,334.333 16.659 M362.598 16.643 C 362.549 16.722,362.087 16.836,361.571 16.897 C 361.055 16.957,360.308 17.155,359.909 17.337 C 359.511 17.518,359.106 17.667,359.009 17.667 C 358.912 17.667,358.833 17.725,358.833 17.797 C 358.833 17.868,358.627 18.020,358.375 18.133 C 357.394 18.575,357.002 18.867,356.474 19.546 C 356.172 19.933,355.875 20.287,355.814 20.333 C 355.753 20.379,355.613 20.754,355.503 21.167 C 355.392 21.579,355.234 22.047,355.151 22.206 C 355.068 22.365,355.000 22.835,355.000 23.250 C 355.000 23.665,355.068 24.135,355.151 24.294 C 355.234 24.453,355.382 24.885,355.479 25.253 C 355.726 26.184,357.149 27.624,358.417 28.223 C 358.967 28.483,359.550 28.766,359.712 28.852 C 359.874 28.937,360.343 29.053,360.754 29.110 C 361.164 29.166,361.500 29.266,361.500 29.333 C 361.500 29.400,362.081 29.547,362.792 29.661 C 363.502 29.775,364.158 29.928,364.250 30.001 C 364.342 30.074,364.867 30.189,365.417 30.255 C 365.967 30.320,366.492 30.432,366.583 30.503 C 366.675 30.573,367.444 30.724,368.292 30.839 C 369.140 30.954,369.833 31.105,369.833 31.175 C 369.833 31.245,370.208 31.354,370.667 31.417 C 371.125 31.480,371.500 31.599,371.500 31.682 C 371.500 31.765,371.590 31.833,371.699 31.833 C 372.015 31.833,372.833 32.698,372.833 33.031 C 372.833 33.197,372.908 33.333,373.000 33.333 C 373.092 33.333,373.167 33.446,373.167 33.583 C 373.167 33.721,373.100 33.833,373.018 33.833 C 372.936 33.833,372.819 34.033,372.758 34.276 C 372.610 34.869,371.771 35.659,370.750 36.168 C 369.812 36.635,363.847 36.819,363.317 36.397 C 363.189 36.294,362.802 36.120,362.458 36.009 C 362.115 35.898,361.833 35.738,361.833 35.654 C 361.833 35.569,361.729 35.500,361.601 35.500 C 361.117 35.500,359.981 33.867,359.600 32.625 C 359.497 32.291,359.001 32.265,356.089 32.443 L 354.293 32.553 354.384 33.318 C 354.434 33.739,354.593 34.308,354.737 34.583 C 354.880 34.858,354.998 35.177,354.999 35.292 C 355.000 35.406,355.057 35.500,355.126 35.500 C 355.195 35.500,355.359 35.744,355.489 36.042 C 356.261 37.802,359.499 39.854,361.892 40.099 C 362.501 40.162,363.000 40.277,363.000 40.356 C 363.000 40.435,364.575 40.500,366.500 40.500 C 368.722 40.500,370.000 40.439,370.000 40.333 C 370.000 40.242,370.221 40.167,370.492 40.167 C 371.183 40.167,372.609 39.844,373.138 39.568 C 373.383 39.440,373.677 39.335,373.792 39.334 C 373.906 39.334,374.000 39.266,374.000 39.185 C 374.000 39.103,374.186 38.989,374.414 38.932 C 375.649 38.622,377.271 36.972,378.181 35.099 C 378.480 34.484,378.512 31.380,378.222 31.200 C 378.114 31.134,377.975 30.874,377.912 30.623 C 377.849 30.372,377.730 30.167,377.649 30.167 C 377.567 30.167,377.500 30.067,377.500 29.946 C 377.500 29.686,376.810 29.000,376.549 29.000 C 376.450 29.000,376.333 28.905,376.288 28.790 C 376.244 28.674,375.842 28.407,375.395 28.196 C 374.949 27.985,374.454 27.743,374.297 27.658 C 374.139 27.573,373.520 27.411,372.922 27.297 C 372.323 27.184,371.833 27.038,371.833 26.974 C 371.833 26.910,371.421 26.806,370.917 26.743 C 370.412 26.680,370.000 26.574,370.000 26.508 C 370.000 26.441,369.344 26.290,368.542 26.172 C 367.740 26.053,367.046 25.905,367.000 25.841 C 366.954 25.778,366.429 25.642,365.833 25.539 C 363.486 25.132,362.000 24.786,362.000 24.646 C 362.000 24.566,361.885 24.500,361.743 24.500 C 361.350 24.500,360.167 23.206,360.167 22.775 C 360.167 20.104,368.661 19.305,371.044 21.753 C 371.822 22.552,371.913 22.687,372.092 23.318 L 372.254 23.887 373.585 23.849 C 374.318 23.828,374.942 23.741,374.972 23.656 C 375.003 23.570,375.557 23.500,376.204 23.500 L 377.380 23.500 377.284 22.708 C 377.178 21.835,376.261 19.859,375.897 19.720 C 375.770 19.671,375.664 19.545,375.662 19.441 C 375.656 19.210,374.021 18.000,373.716 18.000 C 373.597 18.000,373.500 17.931,373.500 17.847 C 373.500 17.762,373.270 17.643,372.989 17.581 C 372.708 17.519,372.280 17.366,372.039 17.241 C 371.798 17.116,371.089 16.963,370.463 16.902 C 369.838 16.840,369.286 16.724,369.236 16.645 C 369.120 16.457,362.714 16.455,362.598 16.643 M255.000 28.500 L 255.000 40.000 257.667 40.000 L 260.333 40.000 260.333 28.500 L 260.333 17.000 257.667 17.000 L 255.000 17.000 255.000 28.500 M295.245 17.621 C 295.309 17.967,295.430 18.275,295.514 18.306 C 295.598 18.336,295.667 18.449,295.667 18.556 C 295.667 18.662,296.005 19.422,296.417 20.243 C 296.829 21.063,297.167 21.832,297.167 21.951 C 297.167 22.070,297.242 22.167,297.333 22.167 C 297.425 22.167,297.500 22.243,297.500 22.337 C 297.500 22.430,297.800 23.132,298.167 23.897 C 298.533 24.662,298.833 25.373,298.833 25.477 C 298.833 25.581,298.902 25.667,298.987 25.667 C 299.071 25.667,299.190 25.892,299.250 26.167 C 299.310 26.442,299.429 26.667,299.513 26.667 C 299.598 26.667,299.667 26.739,299.667 26.828 C 299.667 26.917,299.854 27.400,300.083 27.901 C 300.313 28.402,300.500 28.892,300.500 28.989 C 300.500 29.087,300.575 29.167,300.667 29.167 C 300.758 29.167,300.833 29.259,300.833 29.373 C 300.833 29.634,301.708 31.398,301.875 31.472 C 301.944 31.503,302.000 31.608,302.000 31.706 C 302.000 31.890,302.443 32.884,303.432 34.918 C 303.744 35.561,304.000 36.179,304.000 36.293 C 304.000 36.407,304.067 36.500,304.149 36.500 C 304.230 36.500,304.344 36.688,304.402 36.917 C 304.459 37.146,304.580 37.333,304.670 37.333 C 304.760 37.333,304.834 37.465,304.835 37.625 C 304.836 37.785,305.021 38.292,305.246 38.750 C 305.472 39.208,305.659 39.676,305.661 39.788 C 305.670 40.115,306.264 40.183,308.661 40.131 L 310.906 40.083 311.243 39.250 C 311.429 38.792,311.631 38.378,311.694 38.332 C 311.756 38.285,311.858 38.041,311.922 37.790 C 311.985 37.539,312.100 37.333,312.178 37.333 C 312.256 37.333,312.410 37.033,312.520 36.667 C 312.630 36.300,312.779 36.000,312.852 36.000 C 312.925 36.000,313.034 35.737,313.094 35.417 C 313.155 35.096,313.270 34.833,313.352 34.833 C 313.433 34.833,313.500 34.741,313.500 34.627 C 313.500 34.366,314.375 32.602,314.542 32.528 C 314.610 32.497,314.667 32.399,314.667 32.309 C 314.667 32.055,316.007 29.143,316.190 29.000 C 316.249 28.954,316.392 28.598,316.508 28.208 C 316.624 27.819,316.777 27.500,316.846 27.500 C 316.916 27.500,317.023 27.275,317.083 27.000 C 317.144 26.725,317.256 26.500,317.334 26.500 C 317.411 26.500,317.563 26.230,317.672 25.901 C 317.781 25.571,317.974 25.102,318.101 24.859 C 318.227 24.616,318.332 24.323,318.332 24.208 C 318.333 24.094,318.396 24.000,318.473 24.000 C 318.550 24.000,318.712 23.700,318.833 23.333 C 318.954 22.967,319.110 22.667,319.180 22.667 C 319.250 22.667,319.356 22.442,319.417 22.167 C 319.477 21.892,319.596 21.667,319.680 21.667 C 319.764 21.667,319.834 21.573,319.834 21.458 C 319.835 21.344,319.939 21.051,320.066 20.808 C 320.193 20.565,320.386 20.096,320.495 19.766 C 320.603 19.436,320.754 19.167,320.828 19.167 C 320.903 19.167,321.015 18.961,321.078 18.710 C 321.142 18.459,321.261 18.211,321.344 18.160 C 321.427 18.109,321.543 17.825,321.603 17.529 L 321.710 16.992 318.980 17.037 L 316.250 17.083 315.708 18.162 C 315.410 18.755,315.167 19.374,315.167 19.537 C 315.167 19.700,315.092 19.833,315.000 19.833 C 314.908 19.833,314.831 19.927,314.828 20.042 C 314.825 20.156,314.638 20.625,314.413 21.083 C 314.188 21.542,314.002 22.010,314.002 22.125 C 314.001 22.240,313.931 22.333,313.847 22.333 C 313.762 22.333,313.644 22.558,313.583 22.833 C 313.523 23.108,313.404 23.333,313.320 23.333 C 313.236 23.333,313.166 23.427,313.166 23.542 C 313.165 23.656,313.061 23.949,312.934 24.192 C 312.807 24.435,312.609 24.921,312.493 25.271 C 312.378 25.621,312.182 26.009,312.058 26.132 C 311.935 26.256,311.833 26.448,311.833 26.560 C 311.833 26.672,311.683 27.057,311.500 27.417 C 311.317 27.776,311.167 28.167,311.167 28.285 C 311.167 28.403,311.098 28.500,311.013 28.500 C 310.929 28.500,310.810 28.725,310.750 29.000 C 310.690 29.275,310.588 29.500,310.523 29.500 C 310.459 29.500,310.302 29.856,310.176 30.292 C 310.049 30.727,309.901 31.121,309.848 31.167 C 309.711 31.283,309.001 32.754,308.994 32.935 C 308.977 33.397,308.377 34.335,308.228 34.134 C 308.026 33.859,307.384 32.231,307.240 31.625 C 307.180 31.373,307.070 31.167,306.995 31.167 C 306.921 31.167,306.810 30.942,306.750 30.667 C 306.690 30.392,306.571 30.167,306.487 30.167 C 306.402 30.167,306.331 30.035,306.328 29.875 C 306.325 29.715,306.138 29.208,305.913 28.750 C 305.688 28.292,305.502 27.823,305.502 27.708 C 305.501 27.594,305.425 27.500,305.333 27.500 C 305.242 27.500,305.167 27.384,305.167 27.241 C 305.167 27.099,305.018 26.705,304.835 26.366 C 304.392 25.542,303.833 24.227,303.833 24.009 C 303.833 23.912,303.766 23.833,303.685 23.833 C 303.603 23.833,303.487 23.627,303.426 23.375 C 303.366 23.123,303.068 22.392,302.765 21.750 C 301.678 19.449,301.500 19.044,301.500 18.871 C 301.500 18.774,301.437 18.669,301.359 18.639 C 301.282 18.608,301.113 18.246,300.984 17.833 L 300.750 17.083 297.939 17.038 L 295.128 16.992 295.245 17.621 M340.877 20.709 C 341.122 20.869,341.431 21.000,341.566 21.000 C 341.700 21.000,341.909 21.094,342.030 21.209 C 342.151 21.323,342.567 21.623,342.954 21.875 C 343.342 22.127,343.790 22.539,343.950 22.791 C 344.111 23.044,344.290 23.287,344.349 23.333 C 344.407 23.379,344.513 23.604,344.583 23.833 C 344.654 24.063,344.778 24.293,344.860 24.346 C 344.942 24.399,345.055 24.830,345.111 25.304 L 345.213 26.167 337.523 26.167 L 329.833 26.167 329.833 25.667 C 329.833 25.392,329.908 25.167,330.000 25.167 C 330.092 25.167,330.167 25.035,330.168 24.875 C 330.169 24.594,330.339 24.209,330.845 23.343 C 331.151 22.821,332.110 21.918,332.657 21.636 C 332.892 21.516,333.121 21.375,333.167 21.323 C 333.236 21.245,334.141 20.874,335.333 20.434 C 335.978 20.196,340.431 20.417,340.877 20.709 M236.932 21.375 C 237.667 22.010,238.335 22.667,238.245 22.667 C 238.198 22.667,238.302 22.948,238.476 23.292 C 238.650 23.635,238.846 24.165,238.912 24.470 C 238.978 24.774,239.132 25.061,239.256 25.109 C 239.379 25.156,239.528 25.413,239.586 25.681 C 239.645 25.948,239.762 26.167,239.847 26.167 C 239.931 26.167,240.000 26.244,240.000 26.338 C 240.000 26.432,240.257 27.051,240.570 27.713 C 240.884 28.375,241.194 29.142,241.260 29.417 C 241.326 29.692,241.453 30.010,241.543 30.125 C 241.634 30.240,241.652 30.333,241.583 30.333 C 241.515 30.333,241.535 30.427,241.627 30.542 C 241.720 30.656,241.848 31.069,241.912 31.458 C 241.977 31.848,242.098 32.167,242.181 32.167 C 242.265 32.167,242.333 32.345,242.333 32.562 C 242.333 32.780,242.442 33.266,242.575 33.643 C 242.799 34.279,242.866 34.733,243.091 37.167 C 243.138 37.671,243.218 38.365,243.270 38.708 L 243.363 39.333 236.624 39.333 L 229.885 39.333 229.774 36.792 C 229.581 32.394,229.251 31.729,227.889 32.998 C 226.495 34.296,226.346 34.953,226.560 38.835 L 226.593 39.419 224.755 39.370 C 221.940 39.295,220.766 39.546,219.775 40.438 C 217.553 42.435,217.627 42.486,222.777 42.506 L 226.802 42.521 226.741 43.552 C 226.562 46.588,226.327 49.141,226.185 49.583 C 226.097 49.858,225.936 50.796,225.828 51.667 C 225.720 52.538,225.573 53.325,225.501 53.417 C 225.429 53.508,225.321 53.996,225.259 54.500 C 225.198 55.004,225.084 55.567,225.006 55.750 C 224.928 55.933,224.773 56.440,224.660 56.875 C 224.462 57.644,223.355 58.109,223.139 57.514 C 223.108 57.429,222.521 57.282,221.833 57.186 C 221.146 57.090,220.058 56.934,219.417 56.839 C 218.775 56.745,217.032 56.648,215.542 56.625 L 212.834 56.583 212.834 51.883 C 212.833 44.866,213.764 45.034,203.750 50.249 C 202.650 50.822,200.700 51.835,199.417 52.500 C 198.133 53.165,196.558 53.990,195.917 54.333 C 195.275 54.677,193.419 55.644,191.792 56.483 C 190.166 57.322,188.451 58.234,187.982 58.510 C 186.719 59.255,185.477 59.866,185.394 59.783 C 185.327 59.716,186.467 58.568,187.750 57.409 C 188.765 56.492,191.209 54.249,194.731 51.001 C 195.179 50.588,195.629 50.175,195.731 50.083 C 195.833 49.992,196.858 49.054,198.008 48.000 C 199.158 46.946,200.846 45.402,201.758 44.570 C 206.984 39.801,206.634 40.169,207.097 38.961 C 207.870 36.944,209.497 35.557,211.583 35.138 C 212.755 34.903,212.707 35.107,212.776 30.096 C 212.809 27.719,212.871 25.740,212.914 25.697 C 212.990 25.621,213.441 25.574,215.417 25.434 C 215.967 25.395,216.567 25.328,216.750 25.284 C 217.056 25.212,219.916 24.944,220.500 24.933 C 220.637 24.930,220.787 24.881,220.833 24.824 C 220.879 24.767,221.726 24.652,222.715 24.568 L 224.514 24.415 224.604 24.833 C 225.253 27.832,225.549 28.197,226.832 27.584 C 228.173 26.943,228.364 26.444,227.916 24.750 C 227.610 23.592,227.679 23.436,228.551 23.308 C 228.992 23.244,229.446 23.114,229.560 23.020 C 229.673 22.925,230.096 22.795,230.498 22.731 C 230.901 22.667,231.422 22.514,231.657 22.391 C 231.891 22.269,232.247 22.168,232.447 22.168 C 232.648 22.167,233.023 22.079,233.281 21.972 C 235.607 21.007,236.362 20.883,236.932 21.375 M227.333 32.583 C 226.928 32.996,226.635 33.333,226.681 33.333 C 226.726 33.333,227.095 32.996,227.500 32.583 C 227.905 32.171,228.199 31.833,228.153 31.833 C 228.107 31.833,227.738 32.171,227.333 32.583 M207.917 38.774 C 207.053 40.092,207.702 43.099,209.121 44.344 C 213.028 47.775,218.924 43.953,217.163 39.131 C 216.865 38.315,216.670 38.266,215.358 38.680 C 213.194 39.362,211.575 39.298,208.569 38.411 C 208.308 38.334,208.145 38.425,207.917 38.774 M240.246 42.723 C 240.518 42.772,240.830 42.738,240.939 42.648 C 241.071 42.538,241.177 42.548,241.256 42.676 C 241.344 42.818,241.410 42.812,241.508 42.654 C 241.617 42.478,241.690 42.478,241.904 42.656 C 242.072 42.795,242.167 42.808,242.167 42.692 C 242.167 42.592,242.260 42.539,242.375 42.575 C 242.490 42.610,242.790 42.684,243.042 42.739 C 243.532 42.847,243.700 43.785,243.350 44.461 C 243.267 44.620,243.119 45.462,243.021 46.333 C 242.923 47.204,242.734 48.217,242.602 48.583 C 242.370 49.228,241.610 51.664,241.589 51.833 C 241.583 51.879,241.532 51.992,241.475 52.083 C 241.419 52.175,241.320 52.494,241.256 52.792 C 241.192 53.090,241.071 53.333,240.987 53.333 C 240.902 53.333,240.833 53.413,240.833 53.511 C 240.833 53.703,240.095 55.426,239.838 55.833 C 239.751 55.971,239.474 56.477,239.222 56.958 C 238.970 57.440,238.704 57.833,238.632 57.833 C 238.559 57.833,238.500 57.909,238.500 58.002 C 238.500 58.094,238.223 58.563,237.885 59.043 C 237.546 59.524,237.092 60.177,236.875 60.496 C 236.364 61.247,236.413 61.215,236.058 61.022 C 235.690 60.821,233.670 60.236,232.792 60.076 C 232.448 60.014,232.167 59.903,232.167 59.829 C 232.167 59.756,231.848 59.643,231.458 59.579 C 231.069 59.515,230.675 59.402,230.583 59.329 C 230.492 59.256,229.929 59.112,229.333 59.009 C 227.590 58.708,227.130 58.216,227.855 57.425 C 227.935 57.338,228.000 57.111,228.000 56.920 C 228.000 56.729,228.114 56.163,228.253 55.661 C 228.392 55.160,228.579 54.262,228.670 53.667 C 228.760 53.071,228.906 52.433,228.993 52.250 C 229.298 51.613,229.973 45.876,229.990 43.778 L 230.000 42.473 234.875 42.554 C 237.556 42.598,239.973 42.675,240.246 42.723 M217.333 60.070 C 220.811 60.296,221.667 60.385,221.667 60.523 C 221.667 60.602,221.948 60.668,222.292 60.669 C 223.670 60.674,223.812 60.927,223.179 62.250 C 222.714 63.220,222.167 64.530,222.167 64.672 C 222.167 64.761,222.108 64.833,222.037 64.833 C 221.965 64.833,221.814 65.040,221.701 65.292 C 221.487 65.772,221.130 66.410,220.841 66.833 C 220.442 67.418,219.247 69.101,219.089 69.303 C 218.609 69.915,216.896 71.525,216.282 71.942 C 215.898 72.203,215.508 72.510,215.417 72.624 C 215.242 72.841,213.822 73.161,213.355 73.089 C 213.205 73.066,213.028 73.130,212.961 73.232 C 212.894 73.334,212.837 70.410,212.836 66.736 C 212.834 63.062,212.865 60.024,212.903 59.986 C 212.993 59.896,215.328 59.940,217.333 60.070 M227.414 61.662 C 227.469 61.751,227.886 61.873,228.340 61.933 C 228.795 61.994,229.167 62.100,229.167 62.169 C 229.167 62.239,229.666 62.390,230.277 62.505 C 230.888 62.620,231.582 62.816,231.819 62.940 C 232.056 63.063,232.377 63.165,232.532 63.166 C 232.687 63.166,232.860 63.242,232.917 63.333 C 232.973 63.425,233.146 63.501,233.302 63.503 C 234.340 63.512,233.868 64.259,231.774 65.917 C 231.427 66.192,230.942 66.585,230.696 66.791 C 230.451 66.998,230.198 67.166,230.134 67.166 C 230.070 67.167,229.815 67.354,229.568 67.583 C 229.320 67.813,229.031 68.000,228.924 68.000 C 228.817 68.000,228.584 68.131,228.406 68.292 C 228.076 68.590,224.342 70.495,224.068 70.506 C 223.985 70.509,223.617 70.656,223.250 70.833 C 222.883 71.010,222.489 71.158,222.373 71.161 C 222.257 71.164,222.017 71.258,221.839 71.369 C 221.455 71.608,221.218 71.449,221.491 71.136 C 223.063 69.335,226.500 63.167,226.500 62.147 C 226.500 61.651,227.183 61.288,227.414 61.662 " stroke="none" fill="#043c84" fill-rule="evenodd"></path><path id="path1" d="M237.000 22.715 C 236.771 22.821,236.546 22.947,236.500 22.995 C 236.454 23.044,235.892 23.351,235.250 23.679 C 231.430 25.629,229.021 26.917,228.583 27.245 C 227.987 27.692,226.090 28.667,225.817 28.667 C 225.622 28.667,224.578 29.178,222.750 30.168 C 222.200 30.466,220.550 31.325,219.083 32.077 C 212.118 35.648,212.405 35.437,213.875 35.910 C 215.868 36.551,217.144 38.011,217.481 40.034 C 217.625 40.900,217.628 40.904,217.647 40.238 C 217.679 39.134,217.211 38.067,216.230 37.008 C 214.886 35.556,214.579 35.837,221.333 32.334 C 229.626 28.034,230.803 27.369,234.250 25.044 C 238.116 22.436,238.730 21.916,237.000 22.715 M236.670 24.126 C 235.425 25.248,231.786 28.582,229.943 30.289 C 229.407 30.785,229.002 31.224,229.042 31.264 C 229.110 31.332,229.638 30.868,232.486 28.236 C 235.085 25.834,235.950 25.042,236.485 24.577 C 237.820 23.415,238.240 23.002,238.083 23.002 C 237.992 23.002,237.356 23.508,236.670 24.126 M223.499 36.188 C 220.113 39.280,219.884 39.500,220.051 39.500 C 220.119 39.500,220.679 39.039,221.296 38.476 C 223.315 36.631,224.902 35.190,225.748 34.434 C 226.205 34.025,226.542 33.654,226.497 33.608 C 226.452 33.563,225.102 34.724,223.499 36.188 M207.620 47.230 C 198.845 51.762,193.609 54.529,192.583 55.175 C 191.094 56.113,189.333 57.337,189.333 57.435 C 189.333 57.476,189.877 57.145,190.542 56.698 C 192.092 55.657,194.490 54.270,196.500 53.252 C 197.371 52.811,198.683 52.134,199.417 51.747 C 200.150 51.360,201.950 50.422,203.417 49.664 C 204.883 48.905,206.927 47.845,207.957 47.309 C 208.988 46.772,210.038 46.332,210.290 46.331 C 210.917 46.328,211.500 46.159,211.500 45.981 C 211.500 45.486,210.160 45.918,207.620 47.230 " stroke="none" fill="#dc9589" fill-rule="evenodd"></path><path id="path2" d="M212.881 11.583 C 212.882 12.042,212.915 12.209,212.953 11.956 C 212.991 11.703,212.990 11.328,212.951 11.123 C 212.911 10.918,212.880 11.125,212.881 11.583 M234.750 24.690 C 230.724 27.448,230.930 27.330,223.058 31.427 C 214.351 35.958,214.868 35.536,216.230 37.008 C 217.230 38.087,217.667 39.108,217.667 40.363 C 217.667 40.805,217.733 41.167,217.813 41.167 C 218.045 41.167,222.735 36.974,226.755 33.173 C 227.583 32.390,228.893 31.188,229.667 30.500 C 230.441 29.813,232.054 28.350,233.251 27.250 C 236.467 24.296,237.237 23.601,237.690 23.241 C 238.220 22.821,238.417 22.497,238.135 22.510 C 238.015 22.516,236.492 23.497,234.750 24.690 M212.872 62.833 C 212.872 63.154,212.906 63.285,212.948 63.125 C 212.990 62.965,212.990 62.702,212.948 62.542 C 212.906 62.381,212.872 62.512,212.872 62.833 M212.872 65.667 C 212.872 65.987,212.906 66.119,212.948 65.958 C 212.990 65.798,212.990 65.535,212.948 65.375 C 212.906 65.215,212.872 65.346,212.872 65.667 M212.872 71.167 C 212.872 71.487,212.906 71.619,212.948 71.458 C 212.990 71.298,212.990 71.035,212.948 70.875 C 212.906 70.715,212.872 70.846,212.872 71.167 " stroke="none" fill="#731005" fill-rule="evenodd"></path><path id="path3" d="M256.417 4.926 C 255.958 5.067,255.300 5.244,254.954 5.320 C 254.188 5.487,253.698 5.899,253.384 6.643 C 253.040 7.457,253.218 7.464,254.118 6.670 C 256.565 4.514,258.982 4.451,261.225 6.484 C 261.868 7.068,262.500 7.440,262.500 7.235 C 262.500 6.948,261.377 5.500,261.154 5.500 C 261.006 5.500,260.446 5.349,259.910 5.164 C 258.552 4.697,257.416 4.620,256.417 4.926 M254.167 11.394 C 254.167 11.883,255.054 12.814,256.004 13.321 C 257.768 14.264,260.337 13.552,261.124 11.902 C 261.429 11.262,261.265 10.911,260.898 11.417 C 259.666 13.114,258.571 13.686,257.055 13.423 C 256.425 13.314,255.667 12.836,255.667 12.549 C 255.667 12.468,255.445 12.217,255.174 11.992 C 254.903 11.767,254.678 11.490,254.674 11.375 C 254.664 11.090,254.167 11.109,254.167 11.394 M228.000 26.835 C 228.000 27.271,225.820 28.101,225.570 27.760 C 225.260 27.336,225.270 27.488,225.596 28.141 C 225.913 28.777,225.768 28.778,227.080 28.131 C 228.036 27.659,228.717 26.667,228.083 26.667 C 228.037 26.667,228.000 26.742,228.000 26.835 M227.729 32.365 C 226.677 33.359,226.580 33.508,226.547 34.182 C 226.511 34.915,226.511 34.916,226.714 34.410 C 227.089 33.474,228.793 32.049,229.081 32.431 C 229.383 32.830,229.386 32.750,229.102 31.932 L 228.875 31.282 227.729 32.365 M212.500 34.791 C 212.500 34.890,212.181 35.021,211.792 35.084 C 209.611 35.431,207.936 36.825,207.082 39.003 C 206.652 40.102,206.660 40.172,207.160 39.635 C 207.347 39.435,207.500 39.340,207.500 39.424 C 207.500 39.509,207.642 39.317,207.815 38.997 C 208.177 38.329,208.232 38.324,210.068 38.815 C 211.746 39.263,213.103 39.260,214.765 38.807 C 215.490 38.609,216.287 38.449,216.537 38.450 C 217.023 38.452,217.016 38.407,216.396 37.580 C 215.668 36.609,213.516 35.474,213.084 35.833 C 212.990 35.911,212.732 35.871,212.500 35.742 C 212.271 35.615,212.168 35.509,212.272 35.506 C 212.465 35.500,212.716 34.827,212.577 34.688 C 212.535 34.646,212.500 34.692,212.500 34.791 M218.889 40.403 C 217.998 41.137,217.471 41.744,218.017 41.406 C 218.135 41.333,218.128 41.428,217.996 41.675 C 217.822 41.999,217.837 42.090,218.094 42.278 C 218.505 42.579,218.756 42.559,218.497 42.247 C 218.252 41.951,218.426 41.704,219.742 40.487 C 221.004 39.320,220.288 39.250,218.889 40.403 M205.158 41.458 L 204.583 42.083 205.208 41.509 C 205.790 40.974,205.910 40.833,205.783 40.833 C 205.755 40.833,205.474 41.115,205.158 41.458 M202.991 43.458 L 202.417 44.083 203.042 43.509 C 203.385 43.193,203.667 42.912,203.667 42.884 C 203.667 42.757,203.526 42.877,202.991 43.458 M211.167 45.669 C 211.304 45.757,211.642 45.836,211.917 45.846 C 212.552 45.868,211.017 46.325,210.290 46.330 C 210.038 46.332,208.988 46.772,207.957 47.309 C 206.927 47.845,204.883 48.905,203.417 49.664 C 201.950 50.422,200.150 51.360,199.417 51.747 C 198.683 52.134,197.371 52.811,196.500 53.252 C 194.338 54.347,192.134 55.640,189.752 57.212 C 187.577 58.647,187.165 58.963,188.333 58.301 C 188.746 58.067,190.283 57.257,191.750 56.501 C 193.217 55.746,195.017 54.809,195.750 54.419 C 196.483 54.030,198.133 53.167,199.417 52.501 C 200.700 51.835,202.650 50.822,203.750 50.249 C 211.570 46.176,212.287 45.874,212.556 46.542 C 212.612 46.679,212.645 46.662,212.654 46.490 C 212.676 46.042,212.275 45.711,211.583 45.608 C 211.128 45.541,210.996 45.560,211.167 45.669 M199.324 46.792 L 198.750 47.417 199.375 46.842 C 199.719 46.526,200.000 46.245,200.000 46.217 C 200.000 46.090,199.859 46.210,199.324 46.792 M197.242 48.708 L 196.583 49.417 197.292 48.758 C 197.681 48.395,198.000 48.077,198.000 48.050 C 198.000 47.923,197.855 48.050,197.242 48.708 M194.991 50.792 L 194.417 51.417 195.042 50.842 C 195.385 50.526,195.667 50.245,195.667 50.217 C 195.667 50.090,195.526 50.210,194.991 50.792 M193.158 52.458 L 192.583 53.083 193.208 52.509 C 193.552 52.193,193.833 51.912,193.833 51.884 C 193.833 51.757,193.692 51.877,193.158 52.458 M191.158 54.292 L 190.583 54.917 191.208 54.342 C 191.552 54.026,191.833 53.745,191.833 53.717 C 191.833 53.590,191.692 53.710,191.158 54.292 M185.436 59.594 C 185.333 59.862,185.473 59.898,185.806 59.687 C 185.986 59.573,185.981 59.528,185.778 59.450 C 185.640 59.398,185.486 59.462,185.436 59.594 " stroke="none" fill="#4d73a0" fill-rule="evenodd"></path><path id="path4" d="M256.102 4.471 C 256.055 4.546,255.713 4.708,255.342 4.831 C 253.719 5.366,254.722 5.443,256.500 4.919 C 257.555 4.608,258.493 4.677,259.927 5.170 C 261.680 5.773,261.676 5.556,259.917 4.675 C 259.221 4.326,256.288 4.169,256.102 4.471 M259.744 12.510 C 259.398 13.070,256.966 13.235,256.225 12.749 C 255.669 12.385,255.509 12.568,256.018 12.985 C 257.035 13.820,260.000 13.391,260.000 12.410 C 260.000 12.273,259.856 12.329,259.744 12.510 M236.230 21.504 C 236.076 21.658,232.478 23.540,229.375 25.089 L 228.167 25.693 228.167 26.608 L 228.167 27.523 228.625 27.200 C 229.032 26.913,231.884 25.397,235.250 23.679 C 235.892 23.351,236.454 23.041,236.500 22.988 C 236.546 22.936,236.874 22.779,237.229 22.640 L 237.875 22.387 237.360 21.860 C 236.823 21.311,236.518 21.215,236.230 21.504 M237.649 23.546 C 237.321 23.841,236.797 24.306,236.485 24.577 C 236.172 24.849,235.427 25.524,234.828 26.077 C 234.229 26.631,233.104 27.666,232.328 28.379 C 231.552 29.091,230.476 30.080,229.937 30.575 L 228.956 31.477 229.180 32.234 L 229.404 32.992 229.754 32.663 C 229.947 32.482,230.164 32.333,230.237 32.333 C 230.310 32.333,231.626 31.133,233.162 29.667 C 234.697 28.200,235.996 27.000,236.049 27.000 C 236.101 27.000,236.652 26.475,237.273 25.833 C 237.895 25.192,238.500 24.667,238.618 24.667 C 238.913 24.667,238.877 24.191,238.533 23.546 L 238.246 23.008 237.649 23.546 M225.000 27.300 C 225.000 27.373,224.719 27.533,224.375 27.654 C 224.031 27.776,223.649 27.960,223.526 28.063 C 223.237 28.305,220.152 29.933,216.667 31.683 C 212.817 33.617,212.727 33.682,212.622 34.612 C 212.575 35.032,212.443 35.432,212.329 35.502 C 212.180 35.595,212.210 35.658,212.436 35.730 C 212.940 35.890,213.086 35.838,213.036 35.518 C 212.985 35.203,213.004 35.193,219.083 32.077 C 220.550 31.326,222.275 30.427,222.917 30.080 C 223.558 29.733,224.471 29.255,224.945 29.017 L 225.807 28.583 225.482 27.875 C 225.176 27.208,225.000 26.998,225.000 27.300 M225.750 34.382 C 224.506 35.575,223.398 36.592,221.629 38.167 C 219.769 39.821,219.789 39.727,221.352 39.491 C 222.522 39.314,222.629 39.260,223.505 38.402 C 224.012 37.906,224.502 37.500,224.594 37.500 C 225.226 37.500,226.394 35.822,226.526 34.726 C 226.688 33.378,226.763 33.411,225.750 34.382 M206.991 39.797 C 206.767 40.046,205.196 41.519,203.500 43.070 C 201.804 44.622,199.927 46.347,199.328 46.904 C 198.405 47.762,188.372 56.957,186.267 58.873 C 185.868 59.236,185.687 59.496,185.833 59.497 C 186.081 59.499,188.840 57.911,189.000 57.674 C 189.122 57.494,191.232 56.021,192.583 55.173 C 193.609 54.529,198.885 51.742,207.620 47.230 C 209.339 46.342,210.523 45.830,210.870 45.825 C 211.400 45.818,211.387 45.802,210.464 45.326 C 208.469 44.296,207.619 42.989,207.556 40.855 C 207.508 39.206,207.513 39.216,206.991 39.797 M217.787 41.542 C 217.636 41.656,217.323 42.180,217.093 42.705 C 216.392 44.303,215.257 45.223,213.410 45.693 C 212.955 45.808,212.567 45.910,212.546 45.919 C 212.526 45.928,212.588 46.222,212.685 46.573 L 212.861 47.211 213.837 47.109 C 215.620 46.923,217.509 45.572,218.316 43.907 C 218.535 43.454,218.828 42.952,218.967 42.792 C 219.197 42.525,219.184 42.500,218.808 42.500 C 218.133 42.500,217.753 42.128,217.985 41.695 C 218.208 41.279,218.172 41.251,217.787 41.542 M211.500 45.977 C 211.500 46.056,211.688 46.085,211.917 46.041 C 212.146 45.997,212.333 45.932,212.333 45.897 C 212.333 45.862,212.146 45.833,211.917 45.833 C 211.688 45.833,211.500 45.898,211.500 45.977 " stroke="none" fill="#6686b4" fill-rule="evenodd"></path></g></svg>